<mxfile host="app.diagrams.net" modified="2023-01-10T18:10:00.589Z" agent="5.0 (Macintosh; Intel Mac OS X 10_15_7) AppleWebKit/605.1.15 (KHTML, like Gecko) Version/15.6.1 Safari/605.1.15" version="20.8.3" etag="g89ONbcetoWzRlEeJo8i" type="github">
  <diagram id="nPR5bcN3mMRI2fHd4k5s" name="Página-1">
    <mxGraphModel dx="954" dy="647" grid="1" gridSize="10" guides="1" tooltips="1" connect="1" arrows="1" fold="1" page="1" pageScale="1" pageWidth="827" pageHeight="1169" math="0" shadow="0">
      <root>
        <mxCell id="0" />
        <mxCell id="1" parent="0" />
        <mxCell id="WWZEGBuACKRVoJCP_brI-12" style="edgeStyle=orthogonalEdgeStyle;rounded=0;orthogonalLoop=1;jettySize=auto;html=1;exitX=1;exitY=0.5;exitDx=0;exitDy=0;entryX=0;entryY=0.5;entryDx=0;entryDy=0;" edge="1" parent="1" source="WWZEGBuACKRVoJCP_brI-2" target="WWZEGBuACKRVoJCP_brI-8">
          <mxGeometry relative="1" as="geometry" />
        </mxCell>
        <mxCell id="WWZEGBuACKRVoJCP_brI-14" style="edgeStyle=orthogonalEdgeStyle;rounded=0;orthogonalLoop=1;jettySize=auto;html=1;" edge="1" parent="1" source="WWZEGBuACKRVoJCP_brI-2">
          <mxGeometry relative="1" as="geometry">
            <mxPoint x="160" y="260" as="targetPoint" />
          </mxGeometry>
        </mxCell>
        <mxCell id="WWZEGBuACKRVoJCP_brI-2" value="Rol" style="rounded=1;whiteSpace=wrap;html=1;" vertex="1" parent="1">
          <mxGeometry x="170" y="330" width="100" height="40" as="geometry" />
        </mxCell>
        <mxCell id="WWZEGBuACKRVoJCP_brI-9" style="edgeStyle=orthogonalEdgeStyle;rounded=0;orthogonalLoop=1;jettySize=auto;html=1;exitX=0.5;exitY=0;exitDx=0;exitDy=0;entryX=0.5;entryY=1;entryDx=0;entryDy=0;" edge="1" parent="1" source="WWZEGBuACKRVoJCP_brI-3" target="WWZEGBuACKRVoJCP_brI-4">
          <mxGeometry relative="1" as="geometry" />
        </mxCell>
        <mxCell id="WWZEGBuACKRVoJCP_brI-3" value="Aplicación" style="rounded=1;whiteSpace=wrap;html=1;" vertex="1" parent="1">
          <mxGeometry x="490" y="380" width="100" height="40" as="geometry" />
        </mxCell>
        <mxCell id="WWZEGBuACKRVoJCP_brI-10" style="edgeStyle=orthogonalEdgeStyle;rounded=0;orthogonalLoop=1;jettySize=auto;html=1;exitX=0;exitY=0.5;exitDx=0;exitDy=0;entryX=1;entryY=0.5;entryDx=0;entryDy=0;" edge="1" parent="1" source="WWZEGBuACKRVoJCP_brI-4" target="WWZEGBuACKRVoJCP_brI-8">
          <mxGeometry relative="1" as="geometry" />
        </mxCell>
        <mxCell id="WWZEGBuACKRVoJCP_brI-4" value="Aplicación Rutas" style="rounded=1;whiteSpace=wrap;html=1;" vertex="1" parent="1">
          <mxGeometry x="600" y="220" width="100" height="40" as="geometry" />
        </mxCell>
        <mxCell id="WWZEGBuACKRVoJCP_brI-7" value="Usuario" style="rounded=1;whiteSpace=wrap;html=1;" vertex="1" parent="1">
          <mxGeometry x="110" y="60" width="100" height="40" as="geometry" />
        </mxCell>
        <mxCell id="WWZEGBuACKRVoJCP_brI-8" value="Rol Accesos" style="rounded=1;whiteSpace=wrap;html=1;" vertex="1" parent="1">
          <mxGeometry x="390" y="210" width="130" height="40" as="geometry" />
        </mxCell>
        <mxCell id="WWZEGBuACKRVoJCP_brI-15" style="edgeStyle=orthogonalEdgeStyle;rounded=0;orthogonalLoop=1;jettySize=auto;html=1;exitX=0.5;exitY=0;exitDx=0;exitDy=0;entryX=0.61;entryY=1.05;entryDx=0;entryDy=0;entryPerimeter=0;" edge="1" parent="1" source="WWZEGBuACKRVoJCP_brI-13" target="WWZEGBuACKRVoJCP_brI-7">
          <mxGeometry relative="1" as="geometry" />
        </mxCell>
        <mxCell id="WWZEGBuACKRVoJCP_brI-13" value="Usuario Roles" style="rounded=1;whiteSpace=wrap;html=1;" vertex="1" parent="1">
          <mxGeometry x="110" y="210" width="100" height="40" as="geometry" />
        </mxCell>
      </root>
    </mxGraphModel>
  </diagram>
</mxfile>
